<?xml version="1.0" encoding="utf-8"?>
<svg viewBox="315.238 124.241 217.517 167.92" xmlns="http://www.w3.org/2000/svg">
  <g transform="matrix(1, 0, 0, 1, 0, -1.4210854715202004e-14)">
    <path style="stroke-dashoffset: -3px; stroke-linecap: round; stroke-miterlimit: 1; stroke-linejoin: round; fill: rgb(5, 54, 131); stroke: rgb(5, 54, 131); stroke-width: 0px;" d="M 357.128 203.306 L 318.748 144.519 L 385.909 135.687 C 385.909 135.687 356.167 202.346 357.128 203.306 Z"/>
    <path style="stroke-dashoffset: -3px; stroke-miterlimit: 1; fill: rgb(19, 99, 223); stroke: rgb(19, 99, 223); stroke-linecap: round; stroke-linejoin: round; stroke-width: 0px;" d="M 399.088 134.467 C 404.893 134.022 459.887 129.961 497.37 126.527 C 497.37 126.527 528.577 186.818 526.656 185.858 C 524.735 184.898 400.049 134.467 399.088 134.467 Z"/>
    <path style="stroke-dashoffset: -3px; stroke-linecap: round; stroke-miterlimit: 1; stroke-linejoin: round; fill: rgb(19, 99, 223); stroke: rgb(19, 99, 223); stroke-width: 0px;" d="M 328.01 158.548 C 325.856 169.707 317.684 267.914 317.99 266.772 L 387.808 250.868 L 328.116 158.603"/>
    <path style="fill: rgb(216, 216, 216); stroke: rgb(33, 37, 41); stroke-width: 0px;" d="M 385.199 219.106 L 359.474 204.957"/>
    <path style="stroke-dashoffset: -3px; stroke-linecap: round; stroke-miterlimit: 1; stroke-linejoin: round; fill: rgb(6, 40, 61); stroke: rgb(6, 40, 61); stroke-width: 0px;" d="M 383.319 218.549 L 453.453 225.205 L 503.711 196.808 C 490.2 188.364 414.995 159.432 414.995 159.432 L 356.237 201.923 L 388.581 128.696 L 532.55 187.143 C 520.732 208.115 512.174 223.248 513.02 221.78 C 513.431 222.128 513.79 227.336 497.232 289.75 C 487.497 287.903 434.336 273.4 390.841 263.041 L 356.159 201.943"/>
    <path style="stroke-dashoffset: -3px; stroke-miterlimit: 1; stroke-linejoin: round; stroke: rgb(5, 54, 131); fill: rgb(5, 54, 131); stroke-width: 0px;" d="M 329.565 263.785 L 527.273 272.766 L 515.801 216.468 L 329.565 263.785 Z"/>
    <path style="stroke-linecap: round; stroke-miterlimit: 7.84; stroke-linejoin: round; stroke: rgb(5, 54, 131); fill: rgb(5, 54, 131); stroke-width: 0px;" d="M 384.556 220.872 L 454.353 226.269 L 510.491 195.993 L 414.161 158.756 L 356.129 202.022 L 384.556 220.872 Z"/>
    <path style="stroke: rgb(19, 99, 223); fill: rgb(19, 99, 223); stroke-linecap: square; stroke-linejoin: round; stroke-width: 0px;" d="M 383.443 237.365 L 423.709 176.094 L 505.187 213.958 L 383.443 237.365 Z"/>
  </g>
</svg>